<?xml version="1.0" encoding="utf-8"?>
<!-- Generator: Adobe Illustrator 22.0.0, SVG Export Plug-In . SVG Version: 6.00 Build 0)  -->
<svg version="1.1" id="Layer_1" xmlns="http://www.w3.org/2000/svg" xmlns:xlink="http://www.w3.org/1999/xlink" x="0px" y="0px"
	 viewBox="0 0 81.1 98.3" style="enable-background:new 0 0 81.1 98.3;" xml:space="preserve">
<style type="text/css">
	.st0{fill:#0C304F;}
</style>
<g>
	<polygon class="st0" points="71.5,0 71.5,83.5 10.3,0 0,0 0,48.6 9.7,48.6 9.7,15.1 70.8,98.6 81.1,98.6 81.1,0 	"/>
</g>
<g>
	<path class="st0" d="M51.6,88.4c-3.3,0.9-6.9,1.4-10.8,1.4c-9.8,0-17.4-2.8-22.8-8.5c-5.4-5.6-8.1-13.4-8.2-23.5H0
		c0,12.7,3.6,22.6,10.8,29.8c7.2,7.2,17.2,10.9,30,10.9c6.1,0,11.6-0.8,16.4-2.5L51.6,88.4z"/>
</g>
</svg>
